<svg id="svg" version="1.1" xmlns="http://www.w3.org/2000/svg" xmlns:xlink="http://www.w3.org/1999/xlink" width="400" height="400" viewBox="0, 0, 400,400"><g id="svgg"><path id="path0" d="M196.620 60.723 C 195.943 61.017,188.208 66.689,179.433 73.326 C 170.657 79.963,139.791 103.190,110.841 124.940 C 56.315 165.907,57.031 165.331,57.031 168.248 C 57.031 172.868,59.598 174.219,68.373 174.219 C 73.462 174.219,75.004 174.338,75.353 174.760 C 75.682 175.156,75.773 180.542,75.694 194.803 L 75.586 214.304 77.930 209.588 C 81.368 202.668,85.864 196.178,91.460 190.055 L 93.359 187.976 93.359 174.842 L 93.359 161.707 94.629 160.387 C 95.327 159.660,109.082 149.169,125.195 137.073 C 141.309 124.977,164.234 107.706,176.140 98.694 C 197.993 82.153,199.540 81.128,201.384 81.968 C 202.193 82.336,237.613 108.948,263.867 128.913 C 266.875 131.200,277.070 138.914,286.523 146.055 C 295.977 153.197,304.282 159.640,304.980 160.373 L 306.250 161.707 306.250 197.552 L 306.250 233.396 282.324 209.485 C 258.495 185.671,257.060 184.371,254.602 184.377 C 251.513 184.385,251.082 184.737,237.035 198.732 L 223.484 212.233 224.190 213.636 C 225.935 217.107,229.294 227.857,229.296 229.980 C 229.298 231.428,229.478 231.271,240.823 219.896 C 251.420 209.271,253.080 207.813,254.572 207.813 C 254.982 207.813,265.892 218.430,280.763 233.302 L 306.250 258.791 306.250 272.286 C 306.250 282.262,306.128 285.904,305.781 286.250 C 305.422 286.609,295.108 286.719,261.737 286.719 L 218.161 286.719 215.428 290.514 C 213.925 292.601,210.322 296.735,207.422 299.701 L 202.148 305.093 259.570 304.988 L 316.992 304.883 319.090 303.721 C 321.395 302.444,322.859 300.783,323.661 298.536 C 324.090 297.336,324.188 286.016,324.202 236.113 C 324.215 189.242,324.327 175.048,324.688 174.687 C 325.015 174.360,327.158 174.219,331.823 174.219 C 340.855 174.219,342.969 173.047,342.969 168.039 C 342.969 165.063,344.905 166.655,302.923 135.107 C 261.151 103.717,221.690 74.022,211.914 66.622 C 203.196 60.022,200.564 59.007,196.620 60.723 " stroke="none" fill="#106984" fill-rule="evenodd"></path><path id="path1" d="M130.557 151.167 C 128.746 152.280,128.516 153.235,128.516 159.633 C 128.516 167.903,129.381 168.866,136.683 168.716 L 140.430 168.640 140.545 171.234 C 140.609 172.661,140.596 173.828,140.516 173.828 C 128.848 173.828,109.456 183.672,98.416 195.199 C 54.659 240.887,89.689 317.660,153.315 315.518 C 204.286 313.802,237.169 258.666,214.636 212.695 C 204.406 191.823,186.930 179.016,161.816 173.989 C 161.009 173.828,160.938 173.599,160.939 171.184 L 160.940 168.555 165.138 168.555 C 171.941 168.555,172.384 167.946,172.196 158.843 C 172.071 152.778,172.065 152.745,170.987 151.668 L 169.905 150.586 150.870 150.484 C 132.387 150.384,131.799 150.404,130.557 151.167 M146.484 191.384 C 146.484 196.382,147.178 197.461,150.391 197.461 C 153.611 197.461,154.297 196.387,154.297 191.339 L 154.297 187.409 156.934 187.679 C 167.828 188.795,179.744 193.827,187.891 200.750 L 189.258 201.912 186.873 204.374 C 182.732 208.648,182.195 210.380,184.345 212.530 C 186.474 214.659,188.174 214.243,191.807 210.708 L 194.852 207.745 197.027 210.806 C 202.545 218.572,205.954 227.456,207.232 237.402 L 207.495 239.453 204.041 239.455 C 199.942 239.456,198.392 240.154,197.677 242.319 C 196.549 245.738,198.942 247.656,204.335 247.656 L 207.523 247.656 207.249 250.795 C 206.490 259.493,202.531 269.862,197.019 277.589 C 194.334 281.354,194.446 281.327,191.874 278.820 C 188.238 275.277,186.718 274.922,184.531 277.109 C 182.315 279.325,182.686 280.807,186.408 284.617 L 188.744 287.008 185.878 289.250 C 177.871 295.516,166.048 300.466,156.838 301.410 L 154.297 301.670 154.297 297.797 C 154.297 292.639,152.950 290.913,149.437 291.571 C 147.079 292.014,146.484 293.249,146.484 297.709 L 146.484 301.563 145.364 301.563 C 137.022 301.563,121.627 295.075,113.477 288.126 L 111.914 286.794 114.551 284.060 C 117.620 280.877,118.084 278.986,116.245 277.147 C 114.067 274.969,112.035 275.381,108.915 278.632 L 106.590 281.055 105.422 279.688 C 99.258 272.472,94.236 260.042,93.245 249.547 L 93.073 247.726 96.902 247.594 C 101.543 247.433,103.125 246.430,103.125 243.651 C 103.125 240.423,101.611 239.453,96.574 239.453 L 93.108 239.453 93.419 236.816 C 94.425 228.276,97.579 219.808,102.565 212.268 C 105.683 207.553,105.392 207.618,108.758 210.881 C 112.111 214.133,113.745 214.546,115.943 212.696 C 118.386 210.641,117.932 208.806,113.996 204.827 L 111.236 202.037 114.895 199.304 C 122.064 193.949,129.812 190.353,137.695 188.723 C 142.512 187.727,143.182 187.620,145.020 187.553 L 146.484 187.500 146.484 191.384 M147.521 208.527 C 147.049 209.049,146.875 209.980,146.875 211.980 L 146.875 214.719 144.802 215.183 C 131.625 218.132,125.905 233.400,134.700 242.150 C 136.682 244.122,141.454 246.772,145.020 247.881 L 147.266 248.580 147.266 255.787 L 147.266 262.993 145.801 262.766 C 144.995 262.641,142.324 261.519,139.864 260.273 C 137.404 259.027,135.286 257.961,135.156 257.903 C 135.026 257.846,133.441 259.412,131.633 261.383 L 128.347 264.967 130.456 266.856 C 133.975 270.008,142.583 273.828,146.167 273.828 C 146.778 273.828,146.875 274.177,146.875 276.367 C 146.875 279.884,147.490 280.469,151.190 280.469 C 154.972 280.469,155.859 279.632,155.859 276.068 L 155.859 273.585 157.788 273.091 C 177.564 268.022,177.515 245.138,157.715 239.198 L 155.859 238.642 155.859 232.019 L 155.859 225.397 157.520 226.049 C 158.433 226.408,160.293 227.399,161.654 228.251 L 164.128 229.799 165.003 228.864 C 165.484 228.350,166.993 226.742,168.356 225.290 L 170.833 222.650 169.889 221.640 C 168.201 219.833,162.896 216.872,159.331 215.745 L 155.861 214.648 155.860 212.012 C 155.859 208.314,155.306 207.813,151.232 207.813 C 148.760 207.813,148.043 207.950,147.521 208.527 M147.266 231.255 L 147.266 237.510 145.801 236.899 C 139.962 234.460,140.858 225.378,146.973 225.017 C 147.134 225.008,147.266 227.815,147.266 231.255 M157.779 251.155 C 162.912 253.773,162.911 259.330,157.778 261.931 L 155.859 262.904 155.859 256.647 C 155.859 253.206,155.954 250.391,156.070 250.391 C 156.186 250.391,156.955 250.734,157.779 251.155 " stroke="none" fill="#fbba13" fill-rule="evenodd"></path><path id="path2" d="M0.000 200.000 L 0.000 400.000 200.000 400.000 L 400.000 400.000 400.000 200.000 L 400.000 0.000 200.000 0.000 L 0.000 0.000 0.000 200.000 M203.916 60.942 C 204.763 61.375,212.095 66.737,220.209 72.858 C 228.322 78.980,255.967 99.781,281.641 119.083 C 349.523 170.119,343.101 165.002,343.097 168.051 C 343.091 172.906,341.143 173.991,332.157 174.145 C 326.998 174.233,324.943 174.403,324.642 174.765 C 324.356 175.110,324.197 194.176,324.126 236.753 L 324.023 298.242 322.940 300.085 C 321.808 302.011,319.487 303.855,317.227 304.626 C 316.245 304.960,301.097 305.079,259.024 305.082 L 202.148 305.086 207.235 299.906 C 210.033 297.057,213.628 292.925,215.224 290.723 L 218.126 286.719 261.719 286.719 C 295.104 286.719,305.422 286.609,305.781 286.250 C 306.128 285.904,306.250 282.262,306.250 272.286 L 306.250 258.791 280.763 233.302 C 265.892 218.430,254.982 207.813,254.572 207.813 C 253.080 207.813,251.420 209.271,240.823 219.896 C 234.809 225.926,229.795 230.859,229.682 230.859 C 229.568 230.859,229.256 229.702,228.987 228.288 C 228.379 225.081,226.042 217.775,224.608 214.596 L 223.527 212.200 236.861 198.891 C 250.355 185.424,251.614 184.375,254.297 184.375 C 257.108 184.375,257.985 185.161,282.324 209.485 L 306.250 233.396 306.250 197.552 L 306.250 161.707 304.980 160.380 C 304.282 159.651,292.021 150.219,277.734 139.422 C 263.447 128.624,247.275 116.396,241.797 112.248 C 197.562 78.757,200.826 81.014,198.358 82.211 C 197.650 82.555,189.512 88.574,180.273 95.587 C 171.035 102.600,147.973 119.997,129.025 134.248 C 110.077 148.499,94.301 160.549,93.967 161.026 C 93.447 161.768,93.359 163.771,93.359 174.945 L 93.359 187.998 90.882 190.776 C 84.737 197.670,78.864 206.521,76.727 212.109 C 76.357 213.076,75.949 213.990,75.820 214.141 C 75.691 214.291,75.635 205.614,75.694 194.858 C 75.773 180.556,75.682 175.156,75.353 174.760 C 75.003 174.338,73.432 174.217,68.214 174.212 C 59.405 174.204,57.028 172.920,57.033 168.170 C 57.035 165.332,57.050 165.320,108.627 126.584 C 136.216 105.864,167.015 82.693,177.069 75.093 C 198.662 58.771,199.152 58.512,203.916 60.942 M207.307 106.410 C 227.790 123.592,227.704 123.511,227.201 125.517 C 226.917 126.646,203.572 146.510,201.432 147.443 C 199.493 148.289,198.697 147.764,186.269 137.432 C 172.833 126.263,173.077 126.498,173.059 124.729 C 173.042 123.030,173.101 122.975,186.809 111.559 C 201.540 99.292,199.449 99.818,207.307 106.410 M169.283 150.539 C 171.999 151.673,172.266 152.478,172.266 159.536 C 172.266 168.134,171.757 168.750,164.661 168.750 L 160.938 168.750 160.938 171.289 C 160.938 172.686,161.047 173.828,161.181 173.828 C 166.617 173.828,180.771 178.899,188.172 183.499 C 237.906 214.406,231.222 288.372,176.676 310.713 C 126.918 331.092,72.283 287.949,79.472 233.955 C 83.367 204.693,106.756 179.968,135.645 174.571 L 140.234 173.714 140.234 171.232 L 140.234 168.750 136.316 168.750 C 129.037 168.750,128.516 168.126,128.516 159.419 C 128.516 152.435,128.946 151.246,131.771 150.429 C 133.924 149.805,167.765 149.905,169.283 150.539 M143.555 187.769 C 132.217 189.240,120.990 194.041,112.956 200.854 C 111.329 202.233,111.299 202.143,114.451 205.272 C 118.291 209.082,118.492 212.059,115.010 213.514 C 113.002 214.353,111.840 213.853,108.665 210.783 L 105.806 208.019 105.024 208.990 C 98.917 216.572,93.359 230.553,93.359 238.332 L 93.359 239.453 96.912 239.453 C 101.007 239.453,102.368 240.090,103.116 242.356 C 104.224 245.714,101.872 247.656,96.699 247.656 L 93.359 247.656 93.359 249.199 C 93.359 257.175,98.483 270.448,104.783 278.792 L 106.378 280.904 108.560 278.778 C 111.985 275.441,113.795 274.949,115.957 276.768 C 118.363 278.793,117.962 280.886,114.471 284.521 L 112.155 286.933 114.457 288.774 C 121.985 294.798,132.167 299.402,141.377 300.945 C 146.765 301.848,146.289 302.170,146.289 297.622 L 146.289 293.685 147.565 292.546 C 151.262 289.244,154.876 292.370,154.648 298.672 C 154.532 301.861,154.332 301.757,159.056 300.970 C 168.616 299.379,178.918 294.769,186.407 288.731 L 188.635 286.935 185.919 284.134 C 182.651 280.764,182.266 279.002,184.345 276.923 C 186.392 274.876,188.187 275.240,191.418 278.359 C 194.512 281.346,194.115 281.415,197.019 277.382 C 202.489 269.784,206.269 259.769,207.242 250.293 L 207.513 247.656 204.172 247.656 C 199.068 247.656,196.957 246.189,197.429 242.969 C 197.811 240.358,199.411 239.453,203.643 239.453 L 207.273 239.453 206.964 236.570 C 206.009 227.652,202.299 218.265,196.601 210.344 L 194.765 207.792 192.012 210.673 C 189.016 213.806,187.783 214.355,185.696 213.482 C 182.095 211.978,182.260 209.182,186.191 205.067 C 187.835 203.347,189.109 201.890,189.023 201.830 C 188.937 201.769,187.988 201.011,186.914 200.143 C 178.528 193.373,167.880 189.005,156.607 187.710 L 154.425 187.460 154.603 189.611 C 155.033 194.801,153.551 197.656,150.427 197.656 C 147.394 197.656,146.409 196.223,146.181 191.475 C 145.973 187.166,146.161 187.431,143.555 187.769 M154.835 208.331 C 155.786 208.954,155.859 209.208,155.859 211.856 L 155.859 214.710 157.910 215.180 C 160.962 215.880,166.803 218.861,168.977 220.829 L 170.888 222.559 167.792 225.968 C 164.108 230.027,164.040 230.061,162.307 228.739 C 160.847 227.626,157.147 225.791,156.348 225.785 C 155.977 225.782,155.859 227.323,155.859 232.199 L 155.859 238.616 158.082 239.263 C 177.475 244.900,177.355 268.563,157.910 273.140 L 155.859 273.622 155.859 276.196 C 155.859 280.040,153.477 281.615,149.345 280.503 C 147.171 279.917,146.691 279.201,146.615 276.426 L 146.549 274.065 144.271 273.595 C 138.058 272.314,128.516 266.945,128.516 264.731 C 128.516 264.258,134.787 257.813,135.247 257.813 C 135.422 257.813,136.923 258.600,138.583 259.562 C 141.410 261.200,145.553 262.891,146.741 262.891 C 147.161 262.891,147.266 261.466,147.266 255.745 L 147.266 248.600 145.410 248.108 C 139.018 246.416,132.963 241.787,131.276 237.305 C 127.894 228.315,134.345 217.542,144.564 215.115 L 146.484 214.659 146.484 212.299 C 146.484 207.883,150.928 205.771,154.835 208.331 M145.316 225.871 C 140.648 228.230,140.528 234.182,145.105 236.405 C 147.390 237.515,147.303 237.744,147.178 230.906 L 147.070 224.984 145.316 225.871 M155.859 256.466 C 155.859 263.095,155.820 263.011,158.251 261.645 C 162.961 258.998,162.280 252.669,157.090 250.860 L 155.859 250.431 155.859 256.466 " stroke="none" fill="#fbfbfb" fill-rule="evenodd"></path><path id="path3" d="M186.256 112.129 C 173.452 122.847,172.595 123.742,173.269 125.684 C 173.603 126.643,193.476 143.777,197.649 146.703 C 200.386 148.622,200.249 148.701,214.195 137.072 C 227.093 126.317,227.723 125.659,226.985 123.717 C 226.306 121.931,201.647 101.563,200.164 101.563 C 199.053 101.563,197.163 102.999,186.256 112.129 " stroke="none" fill="#2ea228" fill-rule="evenodd"></path><path id="path4" d="M141.726 150.293 C 146.736 150.355,154.822 150.354,159.695 150.293 C 164.568 150.231,160.469 150.180,150.586 150.180 C 140.703 150.180,136.716 150.231,141.726 150.293 M140.230 171.209 L 140.421 174.023 140.543 171.524 C 140.610 170.149,140.524 168.883,140.352 168.710 C 140.180 168.537,140.125 169.661,140.230 171.209 M146.230 190.625 C 146.230 192.451,146.298 193.198,146.380 192.285 C 146.462 191.372,146.462 189.878,146.380 188.965 C 146.298 188.052,146.230 188.799,146.230 190.625 M154.428 191.016 C 154.428 192.627,154.497 193.286,154.581 192.480 C 154.666 191.675,154.666 190.356,154.581 189.551 C 154.497 188.745,154.428 189.404,154.428 191.016 M150.098 207.702 C 150.688 207.791,151.655 207.791,152.246 207.702 C 152.837 207.612,152.354 207.539,151.172 207.539 C 149.990 207.539,149.507 207.612,150.098 207.702 M146.613 212.305 C 146.614 213.809,146.685 214.376,146.769 213.566 C 146.854 212.755,146.853 211.525,146.766 210.831 C 146.680 210.138,146.611 210.801,146.613 212.305 M190.796 211.816 L 189.648 213.086 190.918 211.939 C 192.101 210.869,192.367 210.547,192.065 210.547 C 191.998 210.547,191.427 211.118,190.796 211.816 M131.030 261.816 L 129.883 263.086 131.152 261.939 C 132.336 260.869,132.601 260.547,132.300 260.547 C 132.232 260.547,131.661 261.118,131.030 261.816 M146.596 276.367 C 146.599 277.441,146.675 277.834,146.765 277.241 C 146.854 276.647,146.852 275.768,146.759 275.288 C 146.667 274.807,146.593 275.293,146.596 276.367 M107.593 279.785 L 106.445 281.055 107.715 279.907 C 108.898 278.838,109.164 278.516,108.862 278.516 C 108.795 278.516,108.224 279.087,107.593 279.785 M150.688 280.745 C 151.174 280.838,151.877 280.835,152.251 280.737 C 152.624 280.639,152.227 280.563,151.367 280.567 C 150.508 280.572,150.202 280.652,150.688 280.745 M114.049 284.668 L 111.914 286.914 114.160 284.779 C 116.247 282.795,116.585 282.422,116.295 282.422 C 116.234 282.422,115.223 283.433,114.049 284.668 M146.230 298.047 C 146.230 299.873,146.298 300.620,146.380 299.707 C 146.462 298.794,146.462 297.300,146.380 296.387 C 146.298 295.474,146.230 296.221,146.230 298.047 M154.428 298.047 C 154.428 299.658,154.497 300.317,154.581 299.512 C 154.666 298.706,154.666 297.388,154.581 296.582 C 154.497 295.776,154.428 296.436,154.428 298.047 " stroke="none" fill="#fce396" fill-rule="evenodd"></path></g></svg>
